# xmcd CD Database Entry
#
# Track frame offsets:
# 150
# 17002
# 38400
# 55360
# 73597
# 90550
# 108100
# 127665
# 146100
# 163535
# 181475
# 206672
# 230407
# 247645
# 270590
# 286757
# 303430
# 316580
# 338255
#
# Disc length: 4676 seconds
#
# Revision: 3
# Processed by: cddbd v1.5.1PL0 Copyright (c) Steve Scherf et al.
# Submitted via: tcd 2.0b
#
DISCID=ed124213
DTITLE=John Mellencamp - Words and Music: John Mellencamp's Greatest H
DTITLE=its [CD1]
DYEAR=1900
DGENRE=
TTITLE0=Walk Tall
TTITLE1=Pink Houses
TTITLE2=Lonely Ol' Night
TTITLE3=Jackie Brown
TTITLE4=Rain On The Scarecrow
TTITLE5=Love And Happiness
TTITLE6=Check It Out
TTITLE7=Peaceful World
TTITLE8=Paper In Fire
TTITLE9=Your Life Is Now
TTITLE10=Human Wheels
TTITLE11=When Jesus Left Birmingham
TTITLE12=Authority Song
TTITLE13=What If I Came Knocking
TTITLE14=Crumblin' Down
TTITLE15=Small Town
TTITLE16=R.O.C.K. In The U.S.A.
TTITLE17=Cherry Bomb
TTITLE18=Pop Singer
EXTD=
EXTT0=
EXTT1=
EXTT2=
EXTT3=
EXTT4=
EXTT5=
EXTT6=
EXTT7=
EXTT8=
EXTT9=
EXTT10=
EXTT11=
EXTT12=
EXTT13=
EXTT14=
EXTT15=
EXTT16=
EXTT17=
EXTT18=
PLAYORDER=
